<?xml version="1.0" encoding="UTF-8"?>
<svg id="Layer_1" xmlns="http://www.w3.org/2000/svg" version="1.1" viewBox="0 0 566.9 494.6">
  <!-- Generator: Adobe Illustrator 29.5.1, SVG Export Plug-In . SVG Version: 2.1.0 Build 141)  -->
  <defs>
    <style>
      .st0 {
        fill: #f16522;
      }

      .st1 {
        fill: #fff;
      }

      .st2 {
        fill: #1a1617;
      }
    </style>
  </defs>
  <rect class="st1" width="566.9" height="494.6"/>
  <g>
    <g>
      <path class="st2" d="M45.5,286.9h68.6c19,0,28.2,5.8,28.2,23s-4.8,17.9-11.5,20.1v.4c10.4,1.5,14.3,7.7,14.3,20.9,0,19.2-10.1,23.2-23.7,23.2H45.5v-87.5ZM69.3,321.6h42.2c4.4,0,7-1.8,7-6.8s-2.6-6.9-7-6.9h-42.2v13.7ZM69.3,353.4h42.7c5.1,0,8.6-1.3,8.6-6.4s-3.4-7.3-8.6-7.3h-42.7v13.7Z"/>
      <path class="st2" d="M157.7,316.6c0-25.6,12.8-31.7,34.2-31.7h38.2c21.5,0,34.2,6,34.2,31.7v26.1c0,25.6-12.8,31.7-34.2,31.7h-38.2c-21.5,0-34.2-6-34.2-31.7v-26.1ZM182.2,334.4c0,12.7,2.4,17.5,13.6,17.5h30.5c11.3,0,13.6-4.8,13.6-17.5v-9.4c0-10.9-2.4-17.5-14.9-17.5h-27.9c-12.6,0-14.9,6.6-14.9,17.5v9.4Z"/>
      <path class="st2" d="M420.2,316.6c0-25.6,12.8-31.7,34.2-31.7h28c33.9,0,38.3,8.2,38.1,33h-23.8v-2.4c0-6.3-4.1-8.1-11.2-8.1h-26c-12.6,0-14.9,6.6-14.9,17.5v9.4c0,12.7,2.4,17.5,13.6,17.5h25.4c10.7,0,13.9-1.2,13.9-12.1h23.8v8.2c0,14.7-4.7,26.3-28.6,26.3h-38.4c-21.5,0-34.2-6-34.2-31.7v-26.1Z"/>
      <path class="st2" d="M45.5,394.9h9.7c3.7,0,5.8.8,5.8,5.3s-.5,4.3-2.9,4.8v.2c2.7.2,3.2,2,3.2,4.6,0,5.1-2.1,5.8-6,5.8h-9.8v-20.7ZM50.4,403.2h3.5c1.7,0,2.1-.3,2.1-2s-.2-1.7-1.5-1.8h-4.1v3.8ZM50.4,411.1h3.7c1.6,0,2.3-.4,2.3-2.1s-.6-2-2.2-2h-3.8v4.1Z"/>
      <path class="st2" d="M68.5,415.6h-4.9v-20.7h4.9v20.7Z"/>
      <path class="st2" d="M76.5,415.6h-4.9v-20.7h8.3l5.3,15.9h.2l-.3-15.9h4.9v20.7h-8.4l-5.2-15.9h-.2l.3,15.9Z"/>
      <path class="st2" d="M101,415.6h-4.9v-15.9h-4.7v-4.8h14.6v4.8h-5v15.9Z"/>
      <path class="st2" d="M111,412l-.9,3.6h-5.1l5.5-20.7h7.5l5.6,20.7h-5l-1-3.6h-6.6ZM114.3,399h0l-2.2,9h4.6l-2.3-9Z"/>
      <path class="st2" d="M129.6,415.6h-4.9v-20.7h8.3l5.3,15.9h.2l-.3-15.9h4.9v20.7h-8.4l-5.2-15.9h-.2l.3,15.9Z"/>
      <path class="st2" d="M307.6,415.6h-4.9v-20.7h7.8l3.5,13h.2l3.3-13h8v20.7h-4.9l.5-15.9h-.2l-4.7,15.9h-4.2l-4.7-15.9h-.1l.5,15.9Z"/>
      <path class="st2" d="M332.6,412l-.9,3.6h-5.1l5.5-20.7h7.5l5.6,20.7h-5l-1-3.6h-6.6ZM335.9,399h0l-2.2,9h4.6l-2.3-9Z"/>
      <path class="st2" d="M346.2,394.9h9.5c4.2,0,6.3,1.1,6.3,6.3s0,5.5-3.5,6.4v.2c2,0,3.3,1.3,3.3,3.7v4.2h-4.9v-2.9c0-1.5-.5-2.6-2-2.6h-3.8v5.5h-4.9v-20.7ZM354.9,405.3c2.1,0,2-.9,2-3.2s-.4-2.4-2-2.4h-3.8v5.6h3.8Z"/>
      <path class="st2" d="M369.4,415.6h-4.9v-20.7h4.9v20.7Z"/>
      <path class="st2" d="M377.4,415.6h-4.9v-20.7h8.3l5.3,15.9h.2l-.3-15.9h4.9v20.7h-8.4l-5.2-15.9h-.2l.3,15.9Z"/>
      <path class="st2" d="M398.8,403.2h7.8v3.8h-7.8v4h8.5v4.5h-13.4v-20.7h13.3v4.5h-8.4v3.8Z"/>
      <path class="st2" d="M434.7,407.8v.6c0,2.3,0,4.3-1.7,5.9-1.7,1.5-3.7,1.5-5.8,1.5-5,0-8.7-.3-8.7-7.8v-5.4c0-6.8,3.3-7.8,8.7-7.8s7.4.6,7.5,6.8v.8h-5v-.8c-.2-1.8-1.3-2-3-2-2.8,0-3.1,1-3.1,3.9v3.2c0,3.1.1,4.3,3.1,4.3s3-.2,3-2.6v-.6h5Z"/>
      <path class="st2" d="M442,403.2h7.8v3.8h-7.8v4h8.5v4.5h-13.4v-20.7h13.3v4.5h-8.4v3.8Z"/>
      <path class="st2" d="M458.5,415.6h-4.9v-20.7h8.3l5.3,15.9h.2l-.3-15.9h4.9v20.7h-8.4l-5.2-15.9h-.2l.3,15.9Z"/>
      <path class="st2" d="M483.1,415.6h-4.9v-15.9h-4.7v-4.8h14.6v4.8h-5v15.9Z"/>
      <path class="st2" d="M489.5,394.9h9.5c4.2,0,6.3,1.1,6.3,6.3s0,5.5-3.5,6.4v.2c2,0,3.3,1.3,3.3,3.7v4.2h-4.9v-2.9c0-1.5-.5-2.6-2-2.6h-3.8v5.5h-4.9v-20.7ZM498.2,405.3c2.1,0,2-.9,2-3.2s-.4-2.4-2-2.4h-3.8v5.6h3.8Z"/>
      <path class="st2" d="M512.7,403.2h7.8v3.8h-7.8v4h8.5v4.5h-13.4v-20.7h13.3v4.5h-8.4v3.8Z"/>
    </g>
    <path class="st0" d="M154.2,408.2v-5.9c0-6.4,3.5-7.6,8.5-7.6s8.5,1.2,8.5,7.6v5.9c0,6.4-3.5,7.6-8.5,7.6s-8.5-1.2-8.5-7.6ZM166.1,407.6v-4.7c0-3.1-.9-3.4-3.5-3.4s-3.4.3-3.5,3.4v4.7c0,3.1.9,3.4,3.5,3.4s3.5-.3,3.5-3.4Z"/>
    <path class="st0" d="M178.2,403.5h7.5v4.5h-7.5v7.6h-4.9v-20.7h13v4.5h-8.1v4.1Z"/>
    <path class="st0" d="M193.3,403.5h7.5v4.5h-7.5v7.6h-4.9v-20.7h13v4.5h-8.1v4.1Z"/>
    <path class="st0" d="M212,403c5.4.4,6.8,1.2,6.8,6s.1,6.8-8,6.8-7.8-.1-7.8-6.9h4.7c0,2.2.7,2.4,3.1,2.4s3.1-.2,3.1-1.9-.3-1.8-2.6-1.9h-1.1c-4.5-.4-7.2-.4-7.2-6.3s3-6.3,7.8-6.3,7.4,0,7.4,5.8v.9h-4.7c0-2.1-.8-2.1-2.7-2.1s-2.9.6-2.9,1.8c0,1.7.7,1.7,2,1.8l2,.2Z"/>
    <path class="st0" d="M237.5,415.6h-4.9v-8.1h-6.4v8.1h-4.9v-20.7h4.9v7.8h6.4v-7.8h4.9v20.7Z"/>
    <path class="st0" d="M239.8,408.2v-5.9c0-6.4,3.5-7.6,8.5-7.6s8.5,1.2,8.5,7.6v5.9c0,6.4-3.5,7.6-8.5,7.6s-8.5-1.2-8.5-7.6ZM251.8,407.6v-4.7c0-3.1-.9-3.4-3.5-3.4s-3.4.3-3.5,3.4v4.7c0,3.1.9,3.4,3.5,3.4s3.5-.3,3.5-3.4Z"/>
    <path class="st0" d="M259,394.9h9.5c4.2,0,6.3,1.1,6.3,6.3s0,5.5-3.5,6.4v.2c2,0,3.3,1.3,3.3,3.7v4.2h-4.9v-2.9c0-1.5-.5-2.6-2-2.6h-3.8v5.5h-4.9v-20.7ZM267.7,405.3c2.1,0,2-.9,2-3.2s-.4-2.4-2-2.4h-3.8v5.6h3.8Z"/>
    <path class="st0" d="M282.2,403.2h7.8v3.8h-7.8v4h8.5v4.5h-13.4v-20.7h13.3v4.5h-8.4v3.8Z"/>
    <path class="st0" d="M281.7,360.5c.4-.3.7-.3,1.1,0,4.5,3.2,9.3,4.2,14.6,3.4,1.6-.2,3.1-.7,4.5-1.3v-51.1h.2l25.1,50.5c.9-.5,1.8-1,2.7-1.6.2-.2.7-.2,1,0,4.5,3.2,9.4,4.2,14.7,3.5,3-.5,5.8-1.6,8.4-3.4.2-.2.7-.2.9,0,.8.6,1.6,1.1,2.5,1.6l25.1-50.5h.2v51c1.2.5,2.5,1,3.8,1.2,2.7.5,5.4.6,8,0,2.7-.5,5.2-1.6,7.6-3.3.3-.2.8-.2,1,0,.9.6,1.8,1.2,2.8,1.6v-75.2h-36.6l-26.9,56.3-26.9-56.3h-36.6v75.5c1-.5,2-1.1,3-1.9Z"/>
    <path class="st0" d="M378.6,372.3c-5.9,4.5-15.2,6.5-24.1.1-2.1,1.5-4.3,2.7-6.7,3.3-3,.8-6.1,1-9.2.3-2.6-.6-5.1-1.6-7.4-3.2-.6-.4-1-.4-1.5,0-3.5,2.5-7.4,3.6-11.6,3.6-3.9,0-7.6-1.2-10.9-3.6-.6-.4-1-.4-1.6,0-4.5,3.1-9.3,4.1-14.4,3.3-2.9-.5-5.6-1.5-8.1-3.3-.5-.4-.9-.4-1.4,0-2.4,1.8-5.2,2.8-8,3.4-.9.2-1.8.2-2.7.3-.5,0-.7-.1-.7-.7,0-2.2,0-4.4,0-6.5,0-.6.2-.8.7-.9,1.6-.2,3.2-.5,4.8-.8,2.2-.5,4.2-1.5,6-2.9.4-.3.7-.3,1.1,0,4.5,3.2,9.3,4.2,14.6,3.4,3.1-.4,5.9-1.7,8.5-3.5.2-.1.7-.1.9,0,4.5,3.2,9.4,4.2,14.6,3.5,3-.4,5.9-1.6,8.5-3.4.2-.2.7-.2,1,0,4.5,3.2,9.4,4.2,14.7,3.5,3-.5,5.8-1.6,8.4-3.4.2-.2.7-.2.9,0,2.3,1.7,4.8,2.9,7.5,3.3,2.2.4,4.6.4,6.8.2,3.2-.3,6.1-1.6,8.9-3.5.2-.2.7,0,1,0,2.3,1.6,4.7,2.7,7.3,3.2,2.7.5,5.4.6,8,0,2.7-.5,5.2-1.6,7.6-3.3.3-.2.8-.2,1,0,3.3,2.3,6.8,3.5,10.6,3.7,1.1,0,1.1,0,1.1,1.3,0,2,0,4,0,5.9,0,.7-.2,1-.9.9-3.8-.2-7.3-1.3-10.5-3.6-.6-.4-1-.5-1.6,0-2.2,1.6-4.7,2.6-7.3,3.1-2.1.4-4.2.6-6.3.3-3.5-.4-6.8-1.7-9.7-4Z"/>
    <path class="st0" d="M373.3,224.3l14.5,3-2.2,32.4h13s-1.7-25-1.7-25l69.7-43.9h3.3c0,10.2,0,20.4,0,30.6s0,1.5-1.5,1.6c-.9,0-1.1.3-1.1,1.1,0,1.4,0,2.8,0,4.2,0,.7.4,1.5.8,2.1.3.5.6.8.5,1.4,0,2-.2,3,2.5,3.3,1.2.2,1.9,1.4,1.8,2.9,0,1.1-1.1,2-2.2,2.1-1.4.1-2.3-.5-2.7-1.9-.2-.7-1.8-1.1-2.3-.6-.1.1-.1.3-.1.5.3,2.4,2.4,4.3,4.8,4.3,2.2,0,4.2-1.5,4.7-3.7.5-2.1-.4-4.3-2.3-5.5-.2-.1-.5-.4-.5-.6,0-.9-.3-1.8.6-2.5.3-.2.5-.7.5-1,.1-1.7.2-3.5.2-5.3,0-.6-.5-.8-1-.9-.5,0-1,0-1.5,0v-32s0,0,.1,0c.9-.2,1.8-.2,2.6,0,.6-.2,1-.5,1.1-.9.4-1.2-1.6-3-4.4-4-2.6-.9-5.1-.8-5.8.2l-69.7,7.9-.2-.2c-.3-.3-.7-.5-1.2-.5s-1.1.3-1.5.7c-.3-.5-.9-.7-1.5-.7-1,0-1.8.8-1.8,1.8s0,.5.2.8c-.2.2-.5.5-.5.5l-15.5,26.9v1ZM470.4,225.4c.7,0,1.1.4,1.1,1.1,0,.7-.5,1.1-1.1,1.1-.6,0-1.2-.6-1.2-1.2,0-.6.6-1.1,1.2-1.1ZM396.1,223.3h-.3s-1.1-26.5-1.1-26.5c.3-.2.5-.5.7-.8,0-.2.1-.3.1-.5l69.5-7.6c0,0,0,.1.1.2l-69,35.3ZM374.5,223.3l15.3-25.7-1,25.7h-14.3Z"/>
    <path class="st0" d="M320,245.3v14.3s45.6,0,45.6,0v-14.3s-45.6,0-45.6,0ZM329.3,254.1h-5.8s0-3.2,0-3.2h5.8s0,3.2,0,3.2ZM340.2,254.1h-5.8v-3.2h5.8v3.2ZM351.1,254.1h-5.8v-3.2h5.8v3.2ZM362,254.1h-5.8v-3.2h5.8v3.2Z"/>
    <path class="st0" d="M361.6,240.1c0-.6-.2-1.1-.2-1.7,0-.6-.2-1.1-.2-1.7,0-.6-.2-1.1-.3-1.7,0-.6-.2-1.2-.3-1.8,0-.5-.2-1-.2-1.6,0-.6-.2-1.1-.2-1.7,0-.6-.2-1.3-.3-1.9,0-.6-.2-1.2-.3-1.8,0-.6-.2-1.1-.2-1.7,0-.5-.2-1.1-.2-1.6l-.8-5c0-.5-.1-1-.2-1.5,0-.6-.2-1.2-.3-1.8,0-.6-.2-1.2-.3-1.7,0-.6-.2-1.2-.3-1.7,0-.3,0-.7-.1-1,0-.3,0-.7-.1-1,0-.6-.2-1.3-.3-1.9,0-.6-.2-1.1-.3-1.7,0-.5-.2-1.1-.2-1.6,0-.6-.2-1.1-.2-1.7,0-.6-.2-1.2-.3-1.8,0-.6-.2-1.2-.3-1.8,0-.5-.2-1.1-.2-1.6,0-.6-.2-1.1-.2-1.7-.1-.9-.3-1.9-.4-2.8l-1.7-11c-.2-1.2-.4-2.3-.5-3.5-.2-1.6-.5-3.1-.7-4.7h-4.2c0,.6.2,1.2.3,1.7l.4,2.4c-1-.9-2-1.9-3-2.9,0-.4,0-.8,0-1.3h-4.2s0,0,0,0c0,.4,0,.9,0,1.3,0,0,0,.1,0,.1-.3.3-.7.7-1,1l-1.9,1.8c0-.3,0-.6.1-.8.2-1.1.3-2.2.5-3.3,0,0,0,0,0,0h-4.2c-.2,1.2-.3,2.4-.5,3.6,0,.5-.2,1.1-.3,1.6,0,.5-.2,1.1-.3,1.6,0,.6-.2,1.1-.2,1.7,0,.6-.2,1.2-.3,1.9-.1.8-.3,1.7-.4,2.5l-.3,2.2c0,.4-.1.7-.2,1.1,0,.4,0,.7-.2,1.1-.1.9-.3,1.7-.4,2.6l-.3,2.1c0,.4-.1.7-.2,1.1,0,.4,0,.7-.2,1.1l-.3,2c-.1.9-.3,1.7-.4,2.6,0,.6-.2,1.2-.3,1.8,0,.6-.2,1.2-.3,1.8-.1.9-.3,1.8-.4,2.6l-.3,2.1c0,.4-.1.7-.2,1.1,0,.4,0,.7-.2,1.1l-.3,1.6c0,.6-.2,1.1-.3,1.7,0,.4-.1.8-.2,1.1,0,.4,0,.7-.2,1.1l-.3,1.6c0,.6-.2,1.1-.3,1.7,0,.4-.1.7-.2,1.1,0,.4,0,.7-.2,1.1,0,.6-.2,1.1-.3,1.7,0,.6-.2,1.1-.3,1.7,0,.4-.1.7-.2,1.1,0,.4,0,.7-.2,1.1l-.7,4.6c0,.4-.1.7-.2,1.1,0,.4,0,.7-.2,1.1,0,.6-.2,1.1-.3,1.7,0,.6-.2,1.1-.3,1.7,0,.4-.1.7-.2,1.1,0,.4,0,.7-.2,1.1-.1.8-.3,1.6-.4,2.4h5.2c1.1-.7,2.1-1.4,3.2-2.2l8.4-5.6c.2-.1.4-.3.6-.4v8.2h4.2v-8.2l8.9,6c1.1.7,2.2,1.5,3.3,2.2h5.1c-.2-1.3-.4-2.5-.6-3.8ZM336.6,185l3.4,4.5-4.7,4.1,1.3-8.6ZM340,193.3l.6-.5v12.5l-5.2-7.8s0,0,0-.1c0,0,0,0,.1,0,1.5-1.3,3-2.6,4.5-3.9ZM334.2,200.6l2.1,3.2c1.2,1.9,2.5,3.7,3.7,5.7-2.1,1.6-4.2,3.1-6.3,4.7l-1.8,1.4,2.3-14.9ZM328.1,240.6l2.7-17.9,9,10-11.7,7.9ZM340.7,229.5l-9.1-10.1,9.1-6.8v16.9ZM340.7,185.7c-.2-.2-.3-.4-.5-.6l-2.6-3.4c.9-.9,1.9-1.7,2.8-2.6l.3-.2v6.9ZM353.7,215.5l-2.8-2.1c-1.8-1.3-3.5-2.6-5.3-4,1.5-2.2,3-4.5,4.5-6.7l1.4-2.1,2.3,14.9ZM350.3,193.6l-4.7-4.1,3.4-4.5,1.3,8.6ZM344.9,178.8l3.1,2.9-3.1,4.1v-6.9ZM344.9,192.8l5.3,4.6-5.3,8v-12.6ZM344.9,212.5l9.1,6.8-9.1,10.2v-17ZM345.8,232.8l9-10,.7,4.6c.2,1.4.4,2.7.6,4.1l.3,1.9c.1.9.3,1.8.4,2.6.1.7.2,1.3.3,2,0,.6.2,1.1.2,1.7,0,.3.1.7.2,1l-11.7-7.9Z"/>
    <g>
      <path class="st0" d="M299.9,259.7c1.9-1.2,4-2.2,7.8-3.5h-10.9c-1.4,1-2.8,2.2-4.1,3.5h7.2Z"/>
      <rect class="st0" x="276.7" y="256.2" width="7.3" height="3.5"/>
      <path class="st0" d="M264,256.2h-10.9c5.4,1.7,10.3,4.6,14.3,8.7,3,3,5.3,6.3,7,10v-9c-2.9-3.8-6.4-7.1-10.5-9.7Z"/>
      <polygon class="st0" points="310.7 254.8 250.1 254.8 246.3 249.4 310.7 249.4 310.7 254.8"/>
    </g>
    <rect class="st0" x="278.8" y="263.4" width="127" height="19.4"/>
    <rect class="st0" x="334.2" y="167.9" width="17.2" height="4.2"/>
    <rect class="st0" x="340.1" y="162" width="5.4" height="4.2" transform="translate(506.8 -178.8) rotate(90)"/>
  </g>
</svg>